<?xml version="1.0" encoding="utf-8"?>
<!-- Generator: Adobe Illustrator 20.0.0, SVG Export Plug-In . SVG Version: 6.00 Build 0)  -->
<svg version="1.1" id="Capa_1" xmlns="http://www.w3.org/2000/svg" xmlns:xlink="http://www.w3.org/1999/xlink" x="0px" y="0px"
	 viewBox="0 0 506 216.5" style="enable-background:new 0 0 506 216.5;" xml:space="preserve">
<style type="text/css">
	.st0{fill:#0A7984;}
</style>
<g>
	<g>
		<g>
			<g>
				<path class="st0" d="M87.3,2C51-2.2,26.1,31.2,14.6,61.5C7,81.8,3.9,103.5,3.7,125.2c-0.2,19.8,1.3,41.1,10.5,59.1
					c7.3,14.4,19.7,25.4,35.5,29.2c16.3,3.9,33.1,0.4,46.5-9.7c30.8-23.3,40.2-67.1,41.2-103.5c0.9-32.7-2.6-81.7-38.9-95.6
					C94.9,3.4,91.1,2.5,87.3,2c-1-0.1-3.1,24.6,0,25c14.5,1.9,26.6,10,34.5,22.2c4.1,6.3,7,13.3,9.2,20.5c1.1,3.7,1.9,7.5,2.6,11.3
					c0.7,4.3,0.9,6.7,1.1,10.2c-0.1-2,0-0.5,0,0.6c0.1,3.5,0.2-0.8,0,1.2c-0.1,1.4-0.1,2.4,0,0.3c0,0.6,0,1.2-0.1,1.8
					c-0.1,2.2,0.1-1.2,0,0.2c-0.1,1.1-0.1,2.1-0.2,3.2c0,0.1-0.1,1.6,0,0.6c0.1-1.1-0.1,0.8-0.1,1c-0.2,2-0.5,4.2-0.7,5.8
					c-1.3,8.6-3.3,17.1-6.1,25.3c-5.3,15.6-13.2,30.9-25.2,42.4c-10.9,10.5-25,17-40.3,16.7c-15.2-0.3-29.8-6.7-39.7-18.4
					c-4.9-5.8-8.5-12.7-11.1-19.8c-1.3-3.6-2.3-7.2-3.1-10.9c-0.4-1.9-0.8-3.8-1.1-5.8c-0.1-1-0.1-0.6-0.2-1.9
					c-0.1-0.7-0.4-3.3-0.3-2.6c0.1,0.8-0.1-1.6-0.1-2.2c-0.2-2,0.5,1.6,0-1c-0.6-2.8,0,1.5,0-0.7c0-0.7,0.1-2.4,0,0.6
					c0-0.6,0.1-1.2,0-1.8c-0.1-2-0.1,1.6,0.1-1.1c0-0.5,0.2-3.2,0.1-1.5c0.2-2.3,0.4-4.5,0.8-6.8c1.1-7.9,3.2-16.9,5.9-24.9
					C22.6,63,43.1,29.9,76.1,26.8c3.7-0.4,7.5-0.3,11.2,0.2C88.4,27.1,90.2,2.3,87.3,2z"/>
			</g>
		</g>
		<g>
			<g>
				<path class="st0" d="M103.5,6.8c-5.1,0-5.7,9.8-6,13.1C96,32.5,96.5,45.4,98,58c2.4,20,7,42.3,18.5,59.2
					c4.3,6.4,10.6,13.1,19,12.3c2.8-0.3,1.3-25.1,0-25c-14.3,1.4-22.4-16.9-26.5-27.7c-3.3-8.5-5.7-17.3-7.4-26.2
					c-0.8-4.3-1.4-7.9-1.8-12c0-0.4-0.3-3.1-0.2-2.1c0.1,1.1-0.1-1.6-0.1-2c0.1,1.9-0.1,1.2,0-0.1c0.2-2.1,0,0.9,0,1.1
					c0-1.8,0,0.8,0,1.2c0.1-1.9,0,0.8-0.1,1c0-0.3,0.2-1,0.1-1.3c1.6,3.2-0.8,1,0,0.7c0-0.2,0-0.4,0.1-0.6c-0.1,1-0.2,1.2-0.1,0.6
					c0.3-1.6,0.1-1.3,0.7-2.7c0.7-1.5,1.5-2.8,3.3-2.8C105.5,31.8,105.5,6.8,103.5,6.8L103.5,6.8z"/>
			</g>
		</g>
		<g>
			<g>
				<path class="st0" d="M265.4,6.7c-10.3,36.7-20.7,73.4-31,110.1c-5.9,20.8-11.7,41.6-17.6,62.4c-0.8,2.7-1.5,5.4-2.3,8
					c-0.2,0.6-0.4,2.9-0.9,3.3c0.8-0.6-1-0.7-1.6-0.9c-2.2-0.8-4.4-1.6-6.5-2.6c-7.7-3.7-14.6-9.3-19.3-16.5
					c-1.1-1.6-1.9-3.4-2.8-5.1c-0.5-0.8,0-0.5-0.4-1.4c2.2,5-0.8,17.3,0.3,13.2c0.8-3.2,1.8-6.2,3-9.3c3.1-7.4,7.3-14.4,11.7-21.1
					c5.6-8.5,11.7-16.7,18.4-24.4c2-2.3,1.9-25.1,0-25c-10.7,0.5-23.9-1-32.8-7.4c-7.1-5.1-12.3-13.3-15.7-21.2
					c-0.2-0.6-0.5-0.6-0.7,0c-2.5,8.1-6.6,16.1-11.8,22.8c-4,5.2-12.2,13.9-19.8,12.8c-0.9-0.1-3.2,24.5,0,25
					c8.5,1.2,17.2-9.1,21.5-14.9c3.7-5.1,6.7-10.7,9-16.5c0.6-1.5,1.1-3,1.7-4.5c0.1-0.3-0.6-1-0.1,0.6c2.9,8.2,10.2,17.5,17.5,22.1
					c8.7,5.5,21.1,6.8,31.2,6.3c0-8.3,0-16.7,0-25c-9.7,11.1-18.6,23.3-25.8,36.2c-5.2,9.3-8.9,19-9.7,29.7
					c-0.5,7.7-0.8,16.1,1,23.6c1.3,5.5,5.2,10.5,9.1,14.6c6,6.3,14.4,11.6,23,13.6c0.1-0.1,0.2-0.3,0.4-0.4
					c5.8-20.7,11.7-41.4,17.5-62.2c9.3-33,18.6-66,27.9-99c2.1-7.6,4.3-15.1,6.4-22.7c1.4-4.9,1.1-10.4,1-15.4
					c-0.1-2.2,0.3-5.5-0.6-7.5C266.3,7.8,265.8,5.2,265.4,6.7L265.4,6.7z"/>
			</g>
		</g>
		<g>
			<g>
				<path class="st0" d="M363.4,71.8c-1.5,5-3.3,10-5.3,14.8c-2.9,7.2-6.4,16.5-13.4,20.7c-5.1,3-10,2.6-15.5,2.1
					c-4-0.4-8.2,0-12.2,0.3c-19.9,1.6-41.4,6.5-58.9,16.5c-16.4,9.4-24.9,24.6-26.7,43.2c-1,10.2-2.1,24.3,3.7,33.5
					c3.8,6.1,10.3,9.9,17.1,11.7c18.3,4.8,35.9-3.5,48.7-16.3c12.5-12.5,20.5-28.6,23.7-45.9c1.9-10.3,2.3-20.9,2-31.4
					c-0.2-7.9-0.9-16-3.2-23.6c-5-16.4-19.1-25.4-35.9-26.1c-18.7-0.8-38.2,11.7-48,27.4c-0.8,1.2-0.7,4.5-0.8,5.7
					c-0.2,3.2-0.2,6.4-0.1,9.6c0.1,2.2-0.3,5.5,0.6,7.5c0.2,0.4,0.3,2.5,1.1,1.3c7.6-12.2,21.7-22.2,35.6-25.4
					c14.6-3.4,32.9,0.4,41.7,13.4c2.7,4,4.7,8.4,5.7,13.1c0.2,0.7,0.4,2.3,0.5,2.5c0-0.2,0.4,2.8,0.2,1.6c-0.2-1.4,0,2.8,0-0.3
					c0-0.8,0-1.7,0-2.5c0,2.3-0.1,0.6,0,0.2c0.1-0.5-0.3,2.6-0.4,3.2c-2.4,15.8-9.9,31.1-20.7,42.8c-11.3,12.2-26.1,20.8-43.2,19.6
					c-6.7-0.5-13.5-2.5-18.9-6.7c-2.5-1.9-4.5-4.2-5.9-7c-0.6-1.1-0.9-2.3-1.3-3.4c-2.6-6.2-1.1,17.3,0,11.7
					c0.3-1.4,0.5-2.8,0.8-4.2c3.9-16.3,16.4-27.1,31.2-33.7c16.5-7.3,34.9-11.7,52.9-12.9c9.4-0.6,20.8,2.5,28.6-4
					c5.8-4.8,9-13.1,11.8-19.9c2-4.9,3.8-9.8,5.3-14.8c1.5-4.8,1.1-10.4,1-15.4c-0.1-2.2,0.3-5.5-0.6-7.5
					C364.3,72.8,363.8,70.3,363.4,71.8L363.4,71.8z"/>
			</g>
		</g>
		<g>
			<g>
				<path class="st0" d="M399,165.1c-3.4,4.1-7,8-10.7,11.8c-4.8,4.9-10.6,11.4-17.4,13.6c-10.1,3.2-21.2-4.5-25-13.4
					c-1-2.4-1.7-4.9-2.1-7.5c0-0.2-0.4-2.6-0.2-0.8c-0.1-0.6-0.1-3.3,0-0.2c0-1.4,0-1.1,0,0.9c0-1.4,0-1.1,0,0.8
					c0.1-3.3-0.2,1.2,0.1-2.1c0.2-2.9-0.2,1.9,0.1-1c0.1-0.9,0.2-1.8,0.3-2.6c0.3-2.9,0.9-6.4,1.6-9.7c2.5-12.9,6.2-25.6,10.5-38.1
					c2.4-7.1,5-14.1,8-20.9c1.9-4.3,1.1-10.8,1-15.4c-0.1-2.2,0.3-5.5-0.6-7.5c-0.1-0.3-0.5-2.6-1.1-1.3
					c-8.6,19.9-15.3,41.1-19.3,62.4c-3.5,18.5-5,38.7-1.6,57.3c2.1,11.7,8.4,22.1,21,24c8.9,1.4,14.8-4.1,21-9.9
					c5.2-4.9,10-10.1,14.6-15.5c2.2-2.6,1.4-9.3,1.4-12.5c0-2.9,0-5.9-0.4-8.8C399.9,168.4,399.2,164.9,399,165.1L399,165.1z"/>
			</g>
		</g>
		<g>
			<g>
				<path class="st0" d="M396,193.6c21.7-25.2,42.5-51.8,60-80c12.4-19.9,22.4-40.5,23.1-64.4c0.3-12,0.5-25.9-6.7-36.2
					c-4.3-6.3-10.9-11.4-18.8-10.8c-16.9,1.2-28.9,21.1-34.2,35.1c-5.9,15.8-5.5,32.8-5.2,49.5c0.4,20.2,2.4,40.3,6.6,60.1
					c4.1,19.5,8.7,41.7,21.9,57.3c6.3,7.4,14.9,12.6,24.9,11.3c9.6-1.2,16.7-7.3,22.6-14.6c5.8-7.1,10.6-15.3,12.2-24.4
					c1.3-7.8,1.3-16.1,0.4-23.9c-0.4-3.9-1.2-7.5-4.4-10c-0.2-0.2-1.4,11.4-1.4,12.5c0,2.6-1,10.6,1.4,12.5c1.2,0.9,1.5,1.8,2.3,3
					c3.6,5.3,2-20-0.1-13.7c-1.1,3.4-2.4,6.6-4.1,9.7c-3.6,6.5-8.4,12.7-14.1,17.5c-11.5,9.6-26.9,8.3-37.3-2.2
					c-12.1-12.3-16.8-30.9-20.8-47.1c-2.3-9.6-4.2-19.2-5.5-29c-0.5-3.6-0.9-7.3-1.2-10.7c-0.2-2-0.3-3.9-0.4-5.9
					c0-0.7-0.1-1.5-0.1-2.2c0.1,2.3,0-1,0-1.2c-0.1-1.4-0.1-2.8-0.1-4.2c-0.1-1.9,0,3.1,0,0.4c0-0.5,0-1,0-1.5c0-2.1,0-4.1,0-6.2
					c0-0.6,0-1.2,0-1.7c-0.1-2.3-0.9,4.6,0.1,0.8c1-3.7,1.6-7.4,3-11.1c4.8-13.3,14.1-28.7,28.2-33.7c5.7-2,11.7-1.5,16.7,1.9
					c3.3,2.2,6,5.2,8,8.6c1.1,1.8,1.9,3.6,2.6,5.6c0.3,0.9,0.6,1.7,0.8,2.6c1.3,5.9-0.2-5,0.2-5.8c-0.9,1.7-0.9,5-1.4,6.9
					c-0.5,2-1.2,3.9-1.8,5.8c-1.7,4.9-3.8,9.7-6.1,14.4c-4.2,8.6-9.1,16.8-14.2,24.8c-16.9,26.5-36.4,51.6-56.9,75.4
					c-2.2,2.6-1.4,9.4-1.4,12.5c0,2.9,0,5.9,0.4,8.8C395.1,190.3,395.9,193.8,396,193.6L396,193.6z"/>
			</g>
		</g>
	</g>
	<g>
		<ellipse class="st0" cx="374.7" cy="51.2" rx="10" ry="8.1"/>
	</g>
</g>
</svg>
